<svg width="24" height="25" viewBox="0 0 24 25" fill="none" xmlns="http://www.w3.org/2000/svg">
  color: #fff;
<path d="M3.21938 11.7627L9.96938 5.01266C10.1101 4.87193 10.301 4.79286 10.5 4.79286C10.699 4.79286 10.8899 4.87193 11.0306 5.01266C11.1714 5.15339 11.2504 5.34426 11.2504 5.54328C11.2504 5.74231 11.1714 5.93318 11.0306 6.07391L5.56031 11.5433L20.25 11.5433C20.4489 11.5433 20.6397 11.6223 20.7803 11.763C20.921 11.9036 21 12.0944 21 12.2933C21 12.4922 20.921 12.683 20.7803 12.8236C20.6397 12.9643 20.4489 13.0433 20.25 13.0433L5.56031 13.0433L11.0306 18.5127C11.1714 18.6534 11.2504 18.8443 11.2504 19.0433C11.2504 19.2423 11.1714 19.4332 11.0306 19.5739C10.8899 19.7146 10.699 19.7937 10.5 19.7937C10.301 19.7937 10.1101 19.7146 9.96937 19.5739L3.21938 12.8239C3.14964 12.7543 3.09432 12.6715 3.05658 12.5805C3.01884 12.4894 2.99941 12.3918 2.99941 12.2933C2.99941 12.1947 3.01884 12.0971 3.05658 12.0061C3.09432 11.915 3.14964 11.8323 3.21938 11.7627Z" fill="#ffffff"/>
</svg>
